<svg xmlns="http://www.w3.org/2000/svg" xmlns:xlink="http://www.w3.org/1999/xlink" width="24" height="24" viewBox="0 0 24 24"><defs><clipPath id="b"><rect width="24" height="24"/></clipPath></defs><g id="a" clip-path="url(#b)"><path d="M15.841,3.965a.66.66,0,0,0-.071.018.572.572,0,0,0-.445.57V7.979a.569.569,0,1,0,1.139,0V4.553a.571.571,0,0,0-.623-.589ZM7.728,7.319a.566.566,0,0,0-.445.4.575.575,0,0,0,.16.58l2.419,2.426a.57.57,0,1,0,.8-.8L8.244,7.5a.571.571,0,0,0-.463-.178Zm16.156,0a.572.572,0,0,0-.339.178L21.126,9.924a.57.57,0,1,0,.8.8L24.347,8.3a.571.571,0,0,0-.463-.981Zm-8.042,2.944a.488.488,0,0,0-.053.018.594.594,0,0,0-.107.018l-.018.018a5.676,5.676,0,1,0,.5,0c-.02,0-.033-.018-.053-.018a.549.549,0,0,0-.178-.036Zm.018,1.142h.089a4.564,4.564,0,1,1-.089,0Zm-11.511,4a.577.577,0,0,0,.16,1.142H7.923a.571.571,0,0,0,0-1.142Zm19.359,0a.577.577,0,0,0,.16,1.142h3.416a.571.571,0,0,0,0-1.142H23.706ZM10.2,21.039a.571.571,0,0,0-.339.178L7.443,23.644a.57.57,0,1,0,.8.8l2.419-2.426a.571.571,0,0,0-.409-.981Zm11.21,0a.566.566,0,0,0-.445.4.575.575,0,0,0,.16.58l2.42,2.427a.57.57,0,1,0,.8-.8l-2.42-2.426a.569.569,0,0,0-.409-.178h-.107Zm-5.569,2.337a.662.662,0,0,0-.071.018.572.572,0,0,0-.445.571v3.426a.569.569,0,1,0,1.139,0V23.965a.571.571,0,0,0-.623-.589Z" transform="translate(-3.853 -3.962)" fill="#f99e87"/></g></svg>