<svg xmlns="http://www.w3.org/2000/svg" xmlns:xlink="http://www.w3.org/1999/xlink" width="24" height="24" viewBox="0 0 24 24"><defs><clipPath id="a"><rect width="7.571" height="7.571"/></clipPath><clipPath id="c"><rect width="24" height="24"/></clipPath></defs><g id="b" clip-path="url(#c)"><path d="M16.268,9.389H15.136A7.185,7.185,0,1,0,8.185,18.37h8.083a4.491,4.491,0,1,0,0-8.982Z" transform="translate(0.194 1.878)" fill="none" stroke="#81c6e8" stroke-linecap="round" stroke-linejoin="round" stroke-width="2"/><g transform="translate(15.241 1.063)" clip-path="url(#a)"><path d="M7.649,3.963l-.022.006a.18.18,0,0,0-.14.18V5.229a.18.18,0,0,0,.359,0V4.148a.18.18,0,0,0-.2-.186ZM5.09,5.021a.179.179,0,0,0-.14.126A.181.181,0,0,0,5,5.33l.763.765a.18.18,0,1,0,.252-.252l-.763-.765a.18.18,0,0,0-.146-.056Zm5.1,0a.18.18,0,0,0-.107.056l-.763.766a.18.18,0,1,0,.252.252l.764-.765a.18.18,0,0,0-.146-.309ZM7.649,5.95l-.017.006a.187.187,0,0,0-.034.006l-.006.006a1.791,1.791,0,1,0,.158,0c-.006,0-.01-.006-.017-.006a.173.173,0,0,0-.056-.011Zm.006.36h.028a1.44,1.44,0,1,1-.028,0ZM4.024,7.572a.182.182,0,0,0,.05.36H5.151a.18.18,0,1,0,0-.36Zm6.107,0a.182.182,0,0,0,.05.36h1.078a.18.18,0,0,0,0-.36H10.13ZM5.87,9.349a.18.18,0,0,0-.107.056L5,10.171a.18.18,0,1,0,.252.252l.763-.765a.18.18,0,0,0-.129-.309Zm3.536,0a.179.179,0,0,0-.14.126.181.181,0,0,0,.05.183l.763.766a.18.18,0,1,0,.252-.252l-.763-.765a.18.18,0,0,0-.129-.056H9.406Zm-1.757.737-.022.006a.18.18,0,0,0-.14.18v1.081a.18.18,0,1,0,.359,0V10.272a.18.18,0,0,0-.2-.186Z" transform="translate(-3.867 -3.962)" fill="#f99e87"/></g></g></svg>