<svg xmlns="http://www.w3.org/2000/svg" xmlns:xlink="http://www.w3.org/1999/xlink" width="24" height="24" viewBox="0 0 24 24"><defs><clipPath id="a"><rect width="7.374" height="7.374"/></clipPath><clipPath id="c"><rect width="24" height="24"/></clipPath></defs><g id="b" clip-path="url(#c)"><g transform="translate(0.575 2.685)"><line y2="2" transform="translate(7.124 16.249)" fill="none" stroke="#81c6e8" stroke-linecap="round" stroke-linejoin="round" stroke-width="2"/><line y2="2" transform="translate(7.124 11.35)" fill="none" stroke="#81c6e8" stroke-linecap="round" stroke-linejoin="round" stroke-width="2"/><line y2="2" transform="translate(14.124 16.249)" fill="none" stroke="#81c6e8" stroke-linecap="round" stroke-linejoin="round" stroke-width="2"/><line y2="2" transform="translate(14.124 11.35)" fill="none" stroke="#81c6e8" stroke-linecap="round" stroke-linejoin="round" stroke-width="2"/><line y2="2" transform="translate(10.624 18.249)" fill="none" stroke="#81c6e8" stroke-linecap="round" stroke-linejoin="round" stroke-width="2"/><line y2="2" transform="translate(10.624 13.074)" fill="none" stroke="#81c6e8" stroke-linecap="round" stroke-linejoin="round" stroke-width="2"/><path d="M16.644,13.829A4.117,4.117,0,0,0,15,5.941H13.96A6.587,6.587,0,1,0,3.469,12.734" fill="none" stroke="#81c6e8" stroke-linecap="round" stroke-linejoin="round" stroke-width="2"/></g><g transform="translate(14.998)" clip-path="url(#a)"><path d="M7.551,3.963l-.022.006a.176.176,0,0,0-.137.175V5.2a.175.175,0,0,0,.35,0V4.143a.175.175,0,0,0-.191-.181ZM5.058,4.993a.174.174,0,0,0-.137.123.177.177,0,0,0,.049.178l.743.745a.175.175,0,1,0,.246-.246l-.743-.745a.175.175,0,0,0-.142-.055Zm4.964,0a.176.176,0,0,0-.1.055l-.743.746a.175.175,0,1,0,.246.246l.744-.745a.175.175,0,0,0-.142-.3Zm-2.471.9L7.535,5.9a.183.183,0,0,0-.033.006L7.5,5.914a1.744,1.744,0,1,0,.154,0c-.006,0-.01-.006-.016-.006A.169.169,0,0,0,7.579,5.9Zm.006.351h.027a1.4,1.4,0,1,1-.027,0ZM4.02,7.478a.177.177,0,0,0,.049.351H5.118a.175.175,0,1,0,0-.351Zm5.948,0a.177.177,0,0,0,.049.351h1.05a.175.175,0,0,0,0-.351h-1.1ZM5.818,9.209a.175.175,0,0,0-.1.055l-.743.746a.175.175,0,1,0,.246.246l.743-.745a.175.175,0,0,0-.126-.3Zm3.444,0a.174.174,0,0,0-.137.123.177.177,0,0,0,.049.178l.744.746a.175.175,0,1,0,.246-.246L9.42,9.264a.175.175,0,0,0-.126-.055H9.262Zm-1.711.718-.022.006a.176.176,0,0,0-.137.175V11.16a.175.175,0,1,0,.35,0V10.108a.175.175,0,0,0-.191-.181Z" transform="translate(-3.867 -3.962)" fill="#f99e87"/></g></g></svg>