<svg xmlns="http://www.w3.org/2000/svg" width="31.052" height="28.107" viewBox="0 0 31.052 28.107"><path d="M12.628,4.922a2.587,2.587,0,0,1,3.385-.5,3.285,3.285,0,0,1,1.3,3.521A2.868,2.868,0,0,1,14.6,10.25H2M16.829,28.078a2.587,2.587,0,0,0,3.385.5,3.285,3.285,0,0,0,1.3-3.521A2.868,2.868,0,0,0,18.8,22.75H2M24.027,9.828a3.233,3.233,0,0,1,4.223-.617,4.106,4.106,0,0,1,1.631,4.39,3.589,3.589,0,0,1-3.376,2.9H2" transform="translate(-0.5 -2.369)" fill="none" stroke="#9d9d9d" stroke-linecap="round" stroke-linejoin="round" stroke-width="3"/></svg>