<svg xmlns="http://www.w3.org/2000/svg" xmlns:xlink="http://www.w3.org/1999/xlink" width="24" height="24" viewBox="0 0 24 24"><defs><clipPath id="b"><rect width="24" height="24"/></clipPath></defs><g id="a" clip-path="url(#b)"><g transform="translate(-70.124 -75.694)"><path d="M88.39,95.57a11.712,11.712,0,1,1,19.758,0l-2-1.273a9.357,9.357,0,0,0-.626-10.885l-1.43,1.429-1.123-1.123,1.452-1.452a9.292,9.292,0,0,0-5.579-2.3v2.04H97.255v-2a9.3,9.3,0,0,0-5.37,2.471l1.242,1.242L92,84.841l-1.183-1.183A9.356,9.356,0,0,0,90.39,94.3l-2,1.273Zm8.46-6.7a2.09,2.09,0,1,1-.833,1.232l-2.644-1.786a.744.744,0,0,1,.832-1.233l2.644,1.786Zm.7,1.372a.6.6,0,1,0,.837-.162A.6.6,0,0,0,97.553,90.239Z" transform="translate(-16.145 1.124)" fill="#9d9d9d"/></g></g></svg>