<svg xmlns="http://www.w3.org/2000/svg" xmlns:xlink="http://www.w3.org/1999/xlink" width="24" height="24" viewBox="0 0 24 24"><defs><clipPath id="b"><rect width="24" height="24"/></clipPath></defs><g id="a" clip-path="url(#b)"><path d="M15.87,9.248h-1.1A7,7,0,1,0,8,18H15.87a4.374,4.374,0,1,0,0-8.747Z" transform="translate(0.381 2.003)" fill="none" stroke="#81c6e8" stroke-linecap="round" stroke-linejoin="round" stroke-width="2"/><path d="M137.876,137.675a3.786,3.786,0,1,1-3.939-6.236.474.474,0,0,1,.6.6,2.822,2.822,0,0,0,3.613,3.613.473.473,0,0,1,.6.6A3.738,3.738,0,0,1,137.876,137.675Zm-4.684-4.685a2.839,2.839,0,1,0,4.23,3.774,3.768,3.768,0,0,1-3.988-3.988A2.665,2.665,0,0,0,133.192,132.99Z" transform="translate(-116.415 -130.413)" fill="#9d9d9d"/></g></svg>