<svg xmlns="http://www.w3.org/2000/svg" xmlns:xlink="http://www.w3.org/1999/xlink" width="24" height="24" viewBox="0 0 24 24"><defs><clipPath id="b"><rect width="24" height="24"/></clipPath></defs><g id="a" clip-path="url(#b)"><g transform="translate(0.001 1.73)"><path d="M19,16.9A5,5,0,0,0,18,7H16.74A8,8,0,1,0,5.12,16" transform="translate(0 -1)" fill="none" stroke="#81c6e8" stroke-linecap="round" stroke-linejoin="round" stroke-width="2"/></g><path d="M17.412,39.619a1.5,1.5,0,0,0-1.014.56.649.649,0,0,0-.138.491.52.52,0,0,0,.232.411.283.283,0,0,0,.364-.091.821.821,0,0,1,.927-.27,3.354,3.354,0,0,1,.725.55,1.631,1.631,0,0,0,1.047.5,1.742,1.742,0,0,0,.975-.434l.016-.014a1.347,1.347,0,0,1,.666-.326,1.355,1.355,0,0,1,.67.326,1.78,1.78,0,0,0,.992.448,1.631,1.631,0,0,0,1.047-.5,3.347,3.347,0,0,1,.722-.55.821.821,0,0,1,.927.27.3.3,0,0,0,.514-.075.689.689,0,0,0-.052-.737,1.363,1.363,0,0,0-1.59-.462,3.458,3.458,0,0,0-.9.657,1.153,1.153,0,0,1-.663.35,1.407,1.407,0,0,1-.67-.336,1.745,1.745,0,0,0-1-.438,1.736,1.736,0,0,0-.995.438,1.415,1.415,0,0,1-.673.336,1.153,1.153,0,0,1-.663-.35,3.439,3.439,0,0,0-.894-.657,1.274,1.274,0,0,0-.419-.1,1.2,1.2,0,0,0-.156,0Zm0,2.565a1.5,1.5,0,0,0-1.014.56.632.632,0,0,0-.156.5.518.518,0,0,0,.241.425.29.29,0,0,0,.373-.119.819.819,0,0,1,.927-.266,3.354,3.354,0,0,1,.725.55,1.631,1.631,0,0,0,1.047.5,1.78,1.78,0,0,0,.992-.448,1.347,1.347,0,0,1,.666-.326,1.355,1.355,0,0,1,.67.326,1.78,1.78,0,0,0,.992.448,1.631,1.631,0,0,0,1.047-.5,3.347,3.347,0,0,1,.722-.55.819.819,0,0,1,.927.266.285.285,0,0,0,.366.1.517.517,0,0,0,.237-.414.646.646,0,0,0-.141-.5,1.363,1.363,0,0,0-1.59-.462,3.459,3.459,0,0,0-.9.657,1.153,1.153,0,0,1-.663.35,1.407,1.407,0,0,1-.67-.336,1.746,1.746,0,0,0-1-.438,1.736,1.736,0,0,0-.995.438,1.415,1.415,0,0,1-.673.336,1.153,1.153,0,0,1-.663-.35,3.439,3.439,0,0,0-.894-.657,1.274,1.274,0,0,0-.419-.1,1.2,1.2,0,0,0-.156,0Zm0,2.56a1.5,1.5,0,0,0-1.014.56.649.649,0,0,0-.138.491.52.52,0,0,0,.232.411.283.283,0,0,0,.364-.091.821.821,0,0,1,.927-.27,3.354,3.354,0,0,1,.725.55,1.631,1.631,0,0,0,1.047.5,1.78,1.78,0,0,0,.992-.448,1.347,1.347,0,0,1,.666-.326,1.355,1.355,0,0,1,.67.326,1.78,1.78,0,0,0,.992.448,1.631,1.631,0,0,0,1.047-.5,3.347,3.347,0,0,1,.722-.55.821.821,0,0,1,.927.27.3.3,0,0,0,.514-.075.689.689,0,0,0-.052-.737,1.363,1.363,0,0,0-1.59-.462,3.459,3.459,0,0,0-.9.657,1.153,1.153,0,0,1-.663.35,1.407,1.407,0,0,1-.67-.336,1.746,1.746,0,0,0-1-.438,1.736,1.736,0,0,0-.995.438,1.415,1.415,0,0,1-.673.336,1.153,1.153,0,0,1-.663-.35,3.439,3.439,0,0,0-.894-.657,1.274,1.274,0,0,0-.419-.1,1.2,1.2,0,0,0-.156,0Z" transform="translate(-9.207 -24.624)" fill="#b7b7b7"/></g></svg>