<svg xmlns="http://www.w3.org/2000/svg" xmlns:xlink="http://www.w3.org/1999/xlink" width="60" height="60" viewBox="0 0 60 60"><defs><clipPath id="b"><rect width="60" height="60"/></clipPath></defs><g id="a" clip-path="url(#b)"><path d="M29,0h.2q.4,0,.8.016l-.136,4C29.578,4,29.287,4,29,4V0Zm1.5.038q.5.026,1,.068l-.34,3.986c-.285-.024-.575-.044-.861-.059ZM32,.153l.031,0h0l.046,0h.017l.015,0h0l.016,0h.014l.017,0,.015,0,.014,0h0l.017,0,.015,0,.016,0,.016,0,.014,0h0l.015,0h0l.016,0,.03,0h0l.015,0h0l.031,0h0l.387.047h0l.015,0h0l.018,0,.016,0,.018,0,.016,0h0l.145.02-.545,3.963c-.283-.039-.571-.074-.856-.1Zm1.488.192c.255.04.509.083.762.129h0l.031.006.012,0,.017,0,.014,0,.013,0,.016,0,.015,0,.012,0h0l.015,0h0l.015,0h0l.061.011-.75,3.929c-.281-.054-.566-.1-.849-.147L33.483.344Zm1.476.268.159.034.012,0,.015,0,.015,0,.014,0,.03.006h0q.221.048.442.1h0l.015,0,.013,0,.013,0,.016,0,.012,0,.218.053L34.98,4.719c-.277-.068-.56-.132-.84-.191L34.958.613Zm1.46.345q.485.128.962.272l-1.154,3.83c-.273-.082-.552-.161-.828-.234L36.418.957Zm1.44.42q.414.132.821.277h0l.03.011h0l.008,0,0,0,.012,0,.013,0,.012,0,.013,0h0l.012,0h0L38.8,1.7,37.452,5.464c-.269-.1-.543-.19-.815-.277l1.221-3.809Zm1.416.495.152.058.012,0,.006,0,.01,0,.008,0,0,0,.011,0h0l.013.005h0l.012,0h0q.313.122.623.251h0l.028.012h0l.012,0h0l.013.005h0l.01,0h0L38.656,5.932c-.264-.11-.533-.218-.8-.319l1.417-3.74Zm1.388.568h0l.014.006h0l.013.006h0l.028.012h0l.028.012h0q.357.159.709.326h0l.028.013h0l.013.006h0l.013.006h0l.011.005,0,0,.009,0,0,0,.011.005.005,0,.006,0,0,0-1.736,3.6c-.258-.124-.521-.245-.782-.36Zm1.357.639.2.1h0l.009,0h0l.016.008,0,0,.007,0,.006,0,.007,0,.01.005,0,0,.008,0,0,0,.012.006h0l.01.005,0,0,.026.013h0q.263.137.523.279h0l.027.015h0L40.983,7.053c-.251-.137-.508-.272-.763-.4l1.8-3.573Zm1.322.709h0l.012.007h0q.427.244.846.5L42.1,7.7c-.244-.15-.493-.3-.741-.44Zm1.283.776.009.006.007,0,.008,0,.007,0,.007,0,0,0,.011.007h0l.012.008h0q.38.245.753.5h0l.012.009L43.184,8.41c-.236-.163-.477-.323-.718-.478l2.158-3.368Zm1.242.841.258.187h0l.017.012h0l.007.005,0,0,.022.016,0,0,.006,0,.006,0,.008.006.006,0,0,0,.008.006,0,0,.01.007,0,0,.008.006,0,0,.011.008,0,0,.009.006,0,0,.023.017h0l.024.018h0q.175.131.348.264l-2.439,3.17c-.227-.175-.46-.348-.693-.514l2.329-3.252Zm1.2.9q.392.312.771.637l-2.6,3.041c-.218-.186-.442-.371-.665-.549L47.062,6.31Zm1.148.965q.375.332.737.675l-2.752,2.9c-.208-.2-.422-.393-.636-.583l2.651-3Zm1.1,1.022.177.175h0l.009.009h0l.01.01,0,0,.008.008,0,0,.007.007.006.006,0,0,.005.006,0,0,.021.021h0q.223.225.442.454l-2.9,2.758c-.2-.207-.4-.414-.606-.615Zm1.043,1.078q.122.132.242.266h0l.01.011h0l.01.011h0l.008.009,0,0,.009.01,0,0,.006.007,0,0,0,0,.009.01,0,0,.006.007,0,0q.174.195.344.393L47.98,12.728c-.186-.217-.379-.434-.573-.645Zm.987,1.13.074.09,0,0,.006.007v0l.01.012,0,.006,0,0,.006.008,0,0,.007.009,0,0,.007.009,0,0,.009.011,0,0,.008.009v0l.009.011h0l.008.01,0,0,.018.022,0,0,.008.01h0l.009.011h0l.008.01v0l.009.011v0l.008.009,0,0,.009.011v0l.008.009,0,0,.008.01h0l.008.01,0,0,.005.007,0,0,.007.009,0,.006,0,0,0,.006,0,0,.009.011,0,0,.006.007v0l.012.015h0l.006.008h0l.02.025h0q.129.162.256.326L48.8,13.731c-.175-.226-.356-.453-.539-.674l3.08-2.553Zm.927,1.179q.221.3.435.6h0l.017.024,0,0,0,.006.005.007,0,.007,0,.007,0,0,.016.023h0l.089.128-3.287,2.279c-.163-.235-.332-.471-.5-.7l3.207-2.391Zm.865,1.225q.278.415.541.841l-3.4,2.106c-.151-.243-.308-.487-.467-.725Zm.8,1.268,0,0,0,.007,0,.005,0,.007,0,0,.006.011,0,0,.005.008,0,0,.007.012h0l.007.012,0,0,.007.011h0l.007.012,0,0L54,14.3v0l.007.013h0l.007.012h0l.015.026v0l.015.026h0l.007.012h0l.015.026h0l.015.026h0l.015.027h0l.078.135h0q.124.217.245.436l-3.5,1.928c-.138-.251-.282-.5-.428-.748l3.436-2.047Zm.734,1.308h0l.007.013v0l.006.012h0l.014.027h0q.12.228.235.458h0l.014.028h0l.007.014h0l.014.027h0l.013.026v0l.013.026v0l.006.011v0l.006.013v0l.005.011,0,0,.006.013h0l.006.013,0,0,.005.01v0l.006.012,0,0,0,.01,0,0,.006.012v0l.005.01,0,0,.006.012h0l.006.013,0,0,.005.011v0l.006.013v0l.005.011v0l.006.013h0l.006.012v0l.006.012h0l-3.6,1.743c-.125-.257-.255-.516-.389-.769Zm.665,1.344.062.135v0l0,.009v0l.007.015,0,0,0,.007,0,.006,0,.006,0,.011,0,.005,0,.007,0,.005.005.012,0,0,0,.01,0,0,0,.011v0l.006.013v0l0,.01v0l.006.013v0l0,.011v0l.006.013h0l.005.012,0,0,0,.01v0l.005.012,0,0,0,.009,0,0,.005.012,0,0,0,.009,0,.005,0,.008,0,.008,0,.008,0,.007,0,0,.011.025,0,0,0,.008v0l.012.028h0q.086.2.17.4L52.049,19.3c-.111-.263-.228-.528-.348-.788Zm.595,1.377.086.216v0l0,.012v0l0,.013,0,0,0,.009,0,0,0,.012,0,.005,0,.007,0,.006,0,.009,0,.007,0,.008,0,.006,0,.008,0,.005,0,.011,0,.006,0,.007,0,.006,0,.011,0,0,0,.009,0,0,0,.009v0l0,.012,0,0,0,.009v0l0,.013v0l0,.012v0l.01.027h0q.083.219.163.439L52.519,20.5c-.1-.269-.2-.539-.307-.8Zm.522,1.406.033.1v0l0,.009v0l.005.016v0l0,.008,0,0,0,.007,0,.011,0,.005,0,.009,0,0,0,.012h0l0,.013v0l0,.012h0l0,.014h0l0,.014h0q.115.348.222.7h0l-3.828,1.162c-.083-.273-.172-.549-.264-.819Zm.448,1.431h0l0,.014h0l0,.015h0l0,.013v0l.008.028v0l0,.012v0l0,.014h0l0,.012v0l0,.012h0l0,.014v0l0,.011v0l0,.013v0l0,.012v0l0,.012v0l0,.013v0l0,.01v0l0,.013v0l0,.011v0l0,.011v0l0,.013v0l0,.01v0l0,.013v0l0,.012v0l0,.011v0l0,.013v0l0,.011v0l0,.014h0l0,.013v0l0,.012v0l0,.014v0l0,.012v0l.007.028v0l0,.013h0l.008.03h0q.056.211.108.424l-3.883.961c-.069-.277-.143-.557-.221-.832Zm.373,1.453c.034.148.067.3.1.448v0l.006.028v0l0,.008v0l0,.012,0,.008v.02l0,.008,0,.008,0,.009v.006l0,.009v.005l0,.013v0l0,.009v.005l0,.01v0l0,.013v.005l0,.009v0l0,.013v0l0,.009v.006l0,.007V23.2l0,.011,0,.008v0l0,.009v0l.006.031h0q.021.1.041.208l-3.928.758c-.054-.281-.114-.564-.178-.843l3.9-.893Zm.3,1.47q.086.491.155.988l-3.962.553c-.04-.283-.085-.57-.134-.851Zm.22,1.484q.06.495.1.994l-3.985.348c-.025-.285-.055-.574-.09-.858Zm.143,1.493q.03.431.048.865v.1h0v.031l-4,.143c-.01-.287-.026-.577-.046-.862l3.99-.28Zm.067,1.5q0,.2,0,.4h0q0,.017,0,.034v0q0,.016,0,.033v.019h0c0,.005,0,.01,0,.015s0,0,0,0,0,.01,0,.016h0v.015s0,0,0,0,0,.01,0,.016h0s0,.009,0,.013v0s0,.006,0,.008,0,0,0,.006v.007s0,0,0,.006v.007s0,0,0,.006v.006c0,.009,0,.019,0,.028v.038h0c0,.1,0,.208,0,.312l-4-.06q0-.191,0-.382c0-.16,0-.323,0-.483Zm-4.008,1.373,4,.128q-.006.2-.016.406h0v.087c-.008.168-.018.337-.029.5l-3.991-.264C53.964,30.391,53.978,30.1,53.987,29.814Zm-.074,1.293,3.986.332-.009.1v.071h0v.03h0l0,.031h0q-.035.382-.08.761l-3.972-.469C53.86,31.681,53.889,31.393,53.913,31.107Zm-.141,1.286,3.964.537q-.035.26-.075.519h0l0,.01v0l0,.019v.023l0,.01v.021l0,.011v0l0,.014h0l0,.014h0q-.027.169-.056.338l-3.943-.674C53.69,32.963,53.734,32.677,53.772,32.393Zm-.207,1.276,3.931.742q-.078.411-.167.819h0l-.009.043v0l-.006.028v.005l0,.007,0,.007,0,.008,0,.011v0l0,.009v0l-.006.028h0l-3.9-.878C53.454,34.234,53.513,33.95,53.566,33.669Zm-.272,1.263,3.887.945q-.086.355-.181.706h0l0,.01v0l-.008.029v0l0,.008v0l0,.014v.005l0,.007,0,.006,0,.007,0,.011,0,.006,0,.007,0,.006,0,.009,0,.006,0,.009v.005l0,.009v0l0,.013v0l0,.011v0l-.008.027v0l0,.012v0l0,.014h0l-3.852-1.08C53.152,35.489,53.226,35.209,53.293,34.932Zm-.338,1.246,3.832,1.146q-.144.48-.3.953L52.694,37C52.786,36.728,52.873,36.452,52.955,36.178Zm-.4,1.227L56.32,38.75l-.035.1h0l-.01.028v0l0,.007,0,.007,0,.006,0,.012,0,0,0,.009v0l0,.013h0l0,.013v0q-.091.249-.186.5v0l0,.012h0l0,.013,0,0,0,.008,0,.006,0,.007,0,.012v0l0,.009v0l-.06.154L52.25,38.211C52.355,37.945,52.457,37.674,52.553,37.405Zm-.466,1.2,3.692,1.539h0l-.005.012h0l-.006.014h0l-.005.013v0l-.011.027v0l-.005.013h0l-.006.014h0l-.005.012v0l-.011.026v0l0,.011v0l-.005.012,0,0,0,.009,0,0,0,.012,0,0,0,.008,0,.006,0,.007,0,.012,0,0,0,.008,0,0-.011.027v0c-.091.213-.185.424-.281.634L51.742,39.4C51.861,39.139,51.978,38.873,52.087,38.61Zm-.528,1.179,3.607,1.729-.115.238v0l-.006.013h0l-.006.012,0,0,0,.008,0,0-.005.011,0,.006,0,.006,0,.007h0l-.008.017v0l-.019.038h0c-.049.1-.1.2-.148.293v0l-.013.025,0,.005,0,.006,0,.007,0,.007,0,.008,0,0,0,.009v0l-.006.013v0l-.006.012h0l-.065.124-3.545-1.852C51.306,40.306,51.436,40.047,51.56,39.789Zm-.589,1.15,3.513,1.913c-.061.112-.122.223-.185.334h0l-.015.026,0,0,0,.007,0,0-.007.012,0,.006,0,.006,0,.006,0,.006-.006.01,0,0,0,.008,0,0-.006.011,0,0-.006.01,0,0-.014.025v0l-.015.026h0q-.1.176-.2.351l-3.444-2.034C50.691,41.443,50.834,41.19,50.971,40.939Zm-.648,1.119,3.409,2.093q-.239.39-.491.772h0l-.005.008h0l-.01.015,0,0,0,.007,0,0-.006.008,0,.007,0,.005,0,.007,0,0L49.86,42.785C50.018,42.546,50.174,42.3,50.323,42.058Zm-.7,1.084,3.3,2.266v0l-.006.009,0,.006-.005.007,0,.006,0,0-.016.024h0c-.089.129-.177.255-.268.382l0,0-.017.023,0,0,0,.007,0,0-.007.009,0,.006,0,.005,0,.007,0,0-.008.011,0,0-.006.009,0,0-.008.011h0l-.008.011v0L52.5,46h0l-.166.227-3.216-2.378C49.288,43.614,49.457,43.378,49.619,43.142Zm-.76,1.047,3.175,2.433-.182.235h0l-.048.061h0l-.019.024h0l-.019.024h0q-.174.221-.353.438l-3.09-2.54C48.5,44.644,48.684,44.416,48.859,44.189ZM48.045,45.2l3.046,2.593-.061.071h0l-.019.022,0,0L51,47.9h0l-.009.01,0,0-.007.008,0,0-.008.01,0,0-.005.006,0,0-.007.008-.005.006,0,.005,0,.005,0,0-.009.01,0,0-.006.006,0,0-.012.013h0l-.006.007,0,0-.02.023h0q-.218.25-.441.494l-2.955-2.7C47.668,45.632,47.86,45.414,48.045,45.2Zm-.864.964,2.908,2.746q-.129.136-.259.271h0l-.022.022h0l-.033.034h0q-.191.2-.385.388l-2.813-2.844C46.782,46.575,46.985,46.367,47.181,46.159Zm-.912.918,2.764,2.892q-.362.346-.735.678l-2.663-2.985C45.849,47.472,46.062,47.275,46.269,47.077Zm-.958.87,2.611,3.03q-.379.326-.769.64L44.647,48.5C44.871,48.32,45.094,48.134,45.311,47.947Zm-1,.819,2.452,3.16-.131.1h0l-.008.006,0,0-.012.009,0,0-.005,0-.007.005,0,0-.01.008,0,0-.009.007,0,0-.024.018h0q-.186.142-.375.28h0l-.024.018,0,0-.01.008h0l-.011.008,0,0-.008.006,0,0-.01.007,0,0-.006,0-.005,0,0,0-.012.009h0l-.008.006h0l-.083.06-2.342-3.243C43.85,49.116,44.083,48.942,44.309,48.766Zm-1.042.766,2.286,3.283,0,0-.006,0-.005,0-.009.006-.007,0,0,0-.025.017h0c-.111.077-.221.152-.333.227h0l-.025.017h0l-.008.005h0l-.014.009,0,0-.007,0,0,0-.01.007-.006,0,0,0-.007,0,0,0-.011.007,0,0-.008.005,0,0-.011.008h0l-.011.007,0,0-.025.016h0l-.261.171-2.171-3.359C42.791,49.858,43.032,49.7,43.267,49.533Zm-1.08.711,2.113,3.4q-.424.264-.858.514l-1.995-3.467C41.695,50.544,41.944,50.4,42.187,50.244Zm-1.115.654,1.935,3.5-.279.152h0l-.027.015h0l-.025.013-.011.006-.005,0-.01.005-.007,0-.006,0-.007,0-.005,0-.011.006,0,0-.008,0,0,0-.011.006,0,0-.009,0,0,0-.011.006h0l-.012.007h0l-.011.006h0l-.013.007h0l-.012.007h0l-.026.014h0l-.027.014h0l-.041.021h0l-.027.014h0l-.027.014h0l-.013.006h0l-.014.007h0l-.013.007h0l-.026.014h0l-.012.006h0l-.013.006h0l-.01.005,0,0-.012.006h0l-.01,0,0,0-.009,0-.006,0-.008,0-.012.006-.025.013h0l-.02.01L40.31,51.3C40.565,51.173,40.821,51.037,41.072,50.9Zm-1.147.6,1.751,3.6c-.156.076-.313.151-.47.224h0l-.019.009h0l-.008,0,0,0-.007,0-.01,0-.006,0-.007,0-.005,0-.011,0h0l-.012.006h0l-.027.012h0l-.314.142-1.625-3.655C39.4,51.741,39.668,51.619,39.925,51.494Zm-1.176.535,1.561,3.683q-.46.195-.927.374L37.95,52.351C38.217,52.249,38.486,52.141,38.749,52.029Zm-1.2.473,1.367,3.759-.22.079h0l-.029.01h0l-.013,0h0l-.014,0h0l-.012,0h0l-.013,0h0l-.013,0h0l-.01,0h0l-.012,0,0,0-.009,0,0,0-.01,0-.006,0-.009,0-.013,0-.005,0-.012,0-.013,0-.006,0-.01,0-.015.005-.014,0-.005,0-.012,0-.013,0-.005,0-.012,0h0l-.01,0,0,0-.01,0h0l-.013,0h0l-.01,0h0l-.013,0h0l-.012,0h0l-.028.009h0l-.012,0h0l-.014,0h0l-.014,0h0l-.029.01h0l-.223.073-1.236-3.8C37,52.694,37.279,52.6,37.547,52.5Zm-1.225.41,1.17,3.825q-.268.082-.539.159h0l-.029.008h0l-.028.008h0l-.012,0h0l-.014,0h0l-.014,0h0l-.013,0h0l-.014,0h0l-.013,0h0l-.029.008h0l-.241.066-1.036-3.863C35.771,53.075,36.049,53,36.322,52.912Zm-1.244.345.969,3.881-.158.039h0l-.028.007-.012,0-.014,0-.016,0-.014,0-.028.007h0l-.349.081h0l-.013,0h0l-.014,0h0l-.015,0-.015,0-.018,0-.014,0h0l-.018,0-.012,0h0l-.224.049-.834-3.912C34.519,53.391,34.8,53.326,35.078,53.257Zm-1.261.28.766,3.926-.069.013-.011,0-.017,0-.014,0-.013,0-.015,0-.016,0-.014,0-.016,0-.015,0-.029.005-.015,0h0l-.029.005-.015,0h0l-.015,0h0l-.016,0-.029.005-.014,0-.017,0-.014,0-.014,0-.017,0-.013,0-.014,0-.017,0-.012,0-.031.005-.012,0h0c-.152.027-.3.052-.457.077l-.629-3.95C33.251,53.642,33.537,53.592,33.817,53.537Zm-1.274.214.561,3.96-.029,0-.014,0-.016,0-.013,0-.011,0q-.452.063-.908.111l-.424-3.977C31.972,53.827,32.26,53.792,32.543,53.751Zm-1.285.148.356,3.984-.027,0h-.014l-.02,0h-.032q-.45.039-.9.064L30.4,53.962C30.683,53.946,30.973,53.925,31.258,53.9Zm-1.292.082.151,4-.28.009h-.328l-.391,0L29.1,54C29.389,54,29.679,53.993,29.966,53.982Zm-2.161-.01c.286.013.576.022.863.026l-.052,4-.312-.006H27.8l-.18-.008Zm-1.291-.094c.285.028.574.052.86.07l-.256,3.992-.337-.024h-.011l-.033,0h-.012l-.02,0h-.149l-.03,0h-.016l-.388-.036Zm-1.283-.16c.283.043.57.081.854.114l-.461,3.973h0l-.017,0-.014,0-.018,0-.015,0-.014,0-.019,0-.014,0-.02,0-.014,0h0l-.03,0-.013,0h0l-.032,0h0c-.255-.032-.511-.067-.764-.1Zm-1.272-.226c.28.057.565.11.847.158l-.666,3.944-.077-.013h0l-.03-.005h0l-.016,0-.029,0-.016,0h0l-.015,0h0l-.016,0-.014,0h0l-.017,0-.015,0-.014,0h0l-.016,0-.013,0h0l-.014,0h0l-.015,0-.029-.005-.015,0h0l-.029-.005h0l-.03-.005h0l-.015,0-.03-.006h0q-.253-.047-.505-.1ZM22.7,53.2c.277.072.558.14.837.2l-.87,3.9-.243-.055h0l-.013,0h0l-.014,0-.013,0-.016,0-.014,0-.012,0-.018,0-.01,0h0l-.031-.007-.011,0h0l-.228-.055h0L22,57.15l-.011,0h0l-.029-.007-.013,0-.017,0-.013,0-.013,0-.013,0-.014,0h0l-.028-.007h0l-.151-.039Zm-1.241-.357c.272.086.55.169.825.245l-1.072,3.854-.014,0h0l-.012,0h0l-.013,0-.013,0-.014,0-.016,0-.013,0-.011,0-.016,0h0l-.009,0h0l-.03-.009h0l-.149-.043h0l-.031-.009h0l-.011,0h0l-.031-.009h0l-.028-.008-.012,0h0l-.014,0-.012,0-.013,0-.012,0-.013,0-.005,0-.011,0h0l-.013,0h0l-.012,0h0l-.029-.009h0l-.373-.115Zm-1.221-.421c.268.1.541.2.811.288L19.778,56.5q-.4-.134-.8-.28h0l-.029-.011h0l-.043-.016h0l-.028-.01h0l-.013-.005h0l-.014-.005h0l-.013,0h0Zm-1.2-.484c.262.114.53.225.8.33l-1.467,3.721q-.276-.109-.55-.223h0l-.028-.012h0l-.013-.005h0l-.014-.006h0l-.012-.005h0l-.026-.011h0l-.01,0h0l-.012-.005,0,0-.008,0-.005,0-.01,0-.007,0-.007,0-.006,0-.007,0-.008,0-.008,0-.007,0-.005,0-.007,0-.007,0-.01,0,0,0-.008,0,0,0-.015-.006,0,0-.008,0h0l-.027-.012h0l-.028-.012h0l-.009,0h0l-.021-.009Zm-1.171-.546c.256.127.517.252.778.371L16.988,55.4l-.162-.075h0l-.028-.013h0l-.009,0h0l-.015-.007h0l-.008,0,0,0-.009,0-.008,0-.007,0-.005,0-.007,0-.006,0L16.7,55.27l-.012-.006-.006,0-.009,0-.008,0-.012-.006-.006,0-.011-.005-.005,0-.007,0-.005,0-.01,0-.005,0-.008,0-.005,0-.008,0,0,0-.011-.005-.005,0-.007,0-.005,0-.01,0-.006,0-.007,0-.006,0-.008,0-.007,0-.009,0-.006,0-.007,0-.007,0-.01,0-.006,0-.006,0-.007,0-.007,0-.009,0-.013-.006-.005,0-.013-.006,0,0-.008,0,0,0-.026-.013h0l-.009,0h0l-.019-.009h0l-.01,0h0l-.233-.115Zm-1.142-.606c.249.141.5.279.758.411L15.64,54.746l-.27-.142h0l-.027-.014,0,0-.007,0,0,0-.011-.006-.006,0-.006,0-.007,0,0,0-.011-.006,0,0-.01-.005,0,0-.026-.014h0q-.24-.13-.478-.264Zm-1.109-.665c.242.153.489.3.736.45L14.328,54.02q-.431-.254-.853-.521ZM14.545,49.4c.233.166.473.33.712.487l-2.2,3.339-.123-.082h0l-.026-.018h0l-.009-.006h0l-.017-.012h0l-.008-.005h0l-.024-.016,0,0-.023-.016,0,0-.007,0,0,0-.01-.007-.006,0-.005,0-.006,0-.007,0-.008-.005-.005,0-.006,0-.006,0-.01-.007-.005,0-.006,0-.005,0-.008-.005-.007,0-.007,0-.005,0-.007,0-.005,0-.009-.006-.005,0-.006,0,0,0-.01-.007,0,0-.007,0,0,0-.009-.006-.005,0-.008-.005,0,0-.008-.005,0,0-.01-.007,0,0-.008-.006,0,0-.011-.007,0,0-.008-.005,0,0-.011-.007,0,0-.008-.006,0,0-.01-.007h0l-.011-.007,0,0-.007-.005,0,0-.01-.007,0,0-.007,0,0,0-.009-.006-.006,0-.007,0,0,0-.007,0-.007,0-.007,0-.005,0-.006,0-.007,0-.008-.005-.005,0-.006,0-.005,0-.008-.006-.007-.005,0,0-.006,0,0,0-.011-.008,0,0-.007,0,0,0-.014-.01h0l-.008-.006h0l-.025-.018h0l-.018-.012Zm-1.035-.776c.225.178.455.354.686.523l-2.371,3.221-.043-.032,0,0-.007-.005,0,0-.01-.007-.006,0,0,0-.009-.007h0l-.011-.008,0,0-.024-.018h0q-.175-.13-.348-.264h0l-.023-.018,0,0-.009-.007,0,0-.011-.008,0,0-.008-.006,0,0-.008-.006-.006,0-.006,0-.005,0-.005,0-.009-.007-.005,0-.006,0,0,0-.022-.017,0,0-.025-.019h0l-.152-.119Zm-.994-.828c.215.189.437.377.658.558L10.64,51.449q-.387-.317-.763-.647Zm-.95-.879c.205.2.417.4.629.591L9.5,50.469c-.176-.16-.348-.321-.52-.484h0l-.023-.022h0l-.021-.021,0,0-.006-.006,0,0-.008-.008-.005-.005,0,0L8.9,49.906l0,0-.009-.009,0,0-.008-.007,0,0-.021-.02h0l-.078-.076Zm-.9-.926c.195.21.4.419.6.623L8.421,49.432q-.264-.266-.521-.539h0l-.021-.022,0,0-.008-.009,0,0-.009-.009,0,0,0-.005,0-.005,0,0L7.83,48.82l0,0-.1-.107Zm-.855-.971c.184.22.374.439.565.652l-2.98,2.669q-.141-.157-.279-.316h0l-.01-.012h0L7.092,48h0l-.009-.011v0l-.019-.022,0,0-.008-.009h0l-.009-.01,0,0-.006-.007,0,0-.008-.009,0,0-.006-.007,0,0L7,47.9l0-.006,0-.005,0-.005,0,0-.008-.009,0,0,0-.006,0,0-.008-.009,0,0-.005-.006,0,0-.019-.022,0,0L6.916,47.8h0L6.9,47.781h0l-.007-.008h0l-.02-.024h0l-.02-.024h0l-.115-.137ZM9,44.006c.172.229.35.458.53.681L6.42,47.2,6.3,47.053h0l-.018-.023,0,0-.008-.01v0l-.008-.01,0,0,0-.006,0,0-.007-.009,0-.006,0,0,0-.006,0,0-.011-.014,0,0-.006-.007v0l-.019-.024h0L6,46.664H6l-.019-.025h0l-.005-.007,0,0-.009-.012,0,0,0-.006,0,0,0-.005-.007-.009,0,0-.005-.007,0,0-.008-.011h0l-.008-.01,0,0-.018-.024h0l-.085-.112Zm-.75-1.054c.16.237.326.475.494.707L5.508,46.008q-.1-.136-.2-.273h0l-.018-.025v0L5.288,45.7v0l-.01-.013,0,0,0-.007,0,0-.007-.01,0-.006,0-.006,0-.006,0-.005-.007-.01,0,0,0-.007,0,0L5.22,45.6l0-.006-.006-.008,0,0L5.2,45.577l0,0-.008-.011,0,0-.007-.009,0,0-.008-.012h0l-.008-.012h0L5.147,45.5h0q-.107-.154-.211-.309Zm-.695-1.091c.147.245.3.491.457.731L4.659,44.771q-.127-.2-.251-.394v0l-.015-.025,0,0-.007-.011h0l-.007-.012,0,0-.006-.009,0,0L4.358,44.3l0,0,0-.008,0,0-.005-.009,0-.006,0-.008,0-.005,0-.006-.006-.009,0-.007,0-.006,0-.006,0-.006-.006-.01,0-.006,0-.005,0-.006,0-.006-.007-.011,0,0,0-.007,0,0-.008-.013,0,0,0-.007,0,0,0-.007-.006-.01,0-.006,0-.006,0-.006,0-.007,0-.008,0-.007,0,0-.005-.008,0,0L4.2,44.045l0,0-.006-.01,0,0-.007-.012h0L4.178,44v0l-.016-.026h0l-.032-.053ZM6.92,40.737c.134.252.275.506.418.753l-3.463,2q-.25-.432-.485-.874Zm-.578-1.156c.121.259.249.519.379.774l-3.562,1.82h0l-.005-.011,0-.007,0,0,0-.008h0c-.081-.16-.161-.319-.239-.48v0l0-.008,0,0-.006-.012,0-.006,0-.006,0-.006,0-.006L2.874,41.6v0l-.005-.01v0l-.013-.027h0q-.068-.141-.134-.282ZM5.825,38.4c.107.265.221.531.338.792L2.511,40.822q-.2-.449-.386-.905h0L2.119,39.9h0Zm-.454-1.209c.094.27.193.542.3.808l-3.732,1.44c-.093-.241-.182-.482-.269-.726h0l0-.009v0l0-.012,0-.007,0-.006,0-.009v0l0-.013h0l0-.013h0L1.591,38.5ZM4.98,35.958c.079.274.165.551.253.823l-3.8,1.244-.05-.154v0l0-.008v0l0-.012,0-.007,0-.006,0-.009v0l0-.013v0l0-.011v0l-.009-.028v0l-.009-.029h0l-.014-.045h0l-.032-.1h0l0-.014h0l-.009-.028v0l0-.013h0l0-.013v0l0-.01v0l0-.012v0l0-.009,0-.006,0-.007-.008-.026v0c-.036-.117-.07-.233-.1-.351Zm-.326-1.25c.065.278.136.559.21.835L1,36.587c-.03-.113-.06-.226-.089-.339v0L.9,36.216h0l0-.009v0l0-.019h0l0-.008v-.005l0-.007,0-.007,0-.009,0-.008v-.006l0-.009v0l0-.013v0l0-.01v0L.865,36.06v0l0-.013h0l-.007-.03h0q-.049-.2-.1-.4Zm-.261-1.265c.05.281.106.566.167.845l-3.91.841Q.626,35.024.6,34.918v0l0-.011v0l0-.013v-.005l0-.008v-.006l0-.008,0-.01v-.02L.581,34.8v0l0-.009v0l-.006-.031v0l-.006-.032h0l0-.01h0l-.006-.031v0l-.008-.043v0L.541,34.6v0l0-.01v0l0-.021h0l0-.009v0l-.006-.029v0l0-.009v0l0-.017v0l0-.008v-.018l0-.014v0l0-.008v0L.5,34.4v0l0-.009v0l-.006-.03v0l-.008-.043h0l-.03-.163ZM4.2,32.165c.036.284.077.571.123.853l-3.949.637q-.056-.346-.1-.694v0l0-.013v0l0-.014V32.9l0-.012V32.86l0-.03h0c-.007-.055-.014-.108-.021-.163Zm-.129-1.288c.021.286.048.575.079.859L.171,32.17c-.008-.076-.016-.151-.024-.227h0v-.011h0l0-.03v-.058l0-.029V31.8h0Q.1,31.486.08,31.173Zm-.063-1.294c.007.287.018.578.034.863l-3.994.227q-.028-.5-.04-1Zm-4-1.409,4,.112C4,28.523,4,28.763,4,29q0,.076,0,.152l-4,.024q0-.071,0-.143H0v-.014s0,0,0-.007S0,29,0,29H0s0-.008,0-.012v0s0-.006,0-.008,0,0,0-.005,0,0,0-.007v-.012s0,0,0-.005,0,0,0-.007v-.054H0q0-.019,0-.038v-.039H0v-.011H0Q0,28.483.012,28.175Zm.08-1.5,3.987.316c-.023.285-.041.575-.053.862l-4-.18c0-.044,0-.087.006-.132v-.057l0-.03h0Q.061,27.065.092,26.677Zm.157-1.492,3.966.521c-.037.284-.07.572-.1.857L.135,26.179q.035-.366.08-.73v-.018l0-.013v-.026l0-.03h0c.007-.06.015-.118.023-.177ZM.482,23.7l3.934.726c-.052.281-.1.567-.142.85L.318,24.691l.013-.084v0l0-.027v-.014l0-.01v0l0-.014v0l0-.013v0l0-.03h0q.017-.108.035-.216h0l0-.03v0l0-.014h0l0-.015v0l0-.012v0l0-.011v0l0-.013v-.028l0-.01v-.02l0-.028v0l0-.01h0l.006-.032h0c.014-.082.028-.163.043-.245h0l.006-.03v0l0-.008v-.013l0-.012v0l0-.009Zm.31-1.467,3.891.929c-.066.278-.129.561-.186.841l-3.92-.794c.015-.075.03-.149.046-.223h0l0-.011h0l.007-.031v0l.006-.029v0l0-.009v0l0-.015v0l0-.008v-.005l0-.008v-.006l0-.013v-.013l0-.007v-.006l0-.012V22.8l0-.007v-.007l0-.008,0-.009,0-.008v-.02l0-.011v-.007l0-.007V22.7l0-.01,0-.008,0-.007v-.006l0-.007,0-.008,0-.01v-.006l0-.007v-.006l0-.018h0l0-.009v0l0-.009v0l0-.019v0l0-.01v0c.024-.1.048-.208.073-.311Zm.386-1.449,3.837,1.131c-.081.274-.158.553-.229.83l-3.874-1Q1.038,21.266,1.179,20.788Zm.461-1.427L5.413,20.69c-.095.269-.186.544-.272.817l-3.817-1.2.059-.187h0l.013-.041h0l.01-.031h0q.112-.345.232-.686Zm.535-1.4,3.7,1.524c-.109.264-.215.534-.314.8L1.811,18.89l0,0,0,0,0-.008h0l.007-.018v0l0-.009h0l.011-.03h0l.012-.031h0l.055-.144h0l.011-.028v0l0-.009v0l.006-.014,0,0,0-.007,0-.006,0-.007,0-.011,0-.006,0-.007,0-.005,0-.011,0,0,0-.01,0,0,0-.01v0l.005-.013v0l0-.012v0l.011-.028h0Q2.081,18.19,2.176,17.959Zm.607-1.371L6.4,18.3c-.123.258-.242.522-.356.785L2.37,17.5l.035-.08v0l0-.009v0l.006-.013,0-.005,0-.007,0-.006,0-.006,0-.011,0-.005,0-.008,0,0,.005-.011v0l0-.01,0,0,0-.01v0l.005-.012,0,0,0-.01v0l.006-.013v0l.005-.011v0l.012-.026v0L2.5,17.2v0l.006-.013v0l.005-.011v0l.006-.013h0l.005-.012v0l.005-.012h0l.006-.013v0l0-.01,0,0,.005-.012,0,0,0-.009,0,0,0-.009,0-.006,0-.008,0-.007,0-.006,0-.009,0-.007,0-.007,0,0,0-.008h0l.009-.019h0q.089-.194.18-.387Zm.678-1.338,3.52,1.9c-.136.252-.269.509-.4.765L3,16.138l.1-.2h0l.02-.039h0l.014-.028v0l.014-.027v0l0-.009h0l.009-.018v0l0-.008,0,0,.013-.026v0L3.2,15.74v0l0-.009h0l.01-.019h0l0-.009h0l.015-.028h0l.015-.029h0c.068-.131.137-.261.207-.392Zm.746-1.3,3.417,2.079c-.149.244-.3.495-.435.744L3.7,14.812l.01-.019h0l.01-.018h0l0-.008,0,0,0-.007.006-.01,0-.006,0-.007,0-.005.006-.011v0l.006-.01,0,0,.006-.011h0l.007-.012,0,0,.006-.01v0l.007-.012v0l.006-.011v0l.014-.025v0l.007-.012h0l.007-.012v0l.006-.011v0l.007-.013v0l.006-.01,0,0,.007-.012h0l.006-.01,0,0,0-.009,0,0,.006-.011,0-.005,0-.006,0-.006,0-.008,0-.008,0,0,0-.007,0,0,.009-.015v0l0-.008v0q.1-.169.2-.336h0l.005-.009h0l.009-.015,0,0,0-.006,0-.007,0,0,.007-.011,0,0L4.174,14h0Zm.812-1.261,3.305,2.253c-.161.236-.32.479-.473.721L4.47,13.524l0-.006h0l.015-.024,0,0,0-.006,0-.007,0,0,.006-.01,0,0,.006-.01h0l.008-.012h0l.007-.012h0l.016-.026h0l.076-.118h0l.017-.026h0l.008-.012h0l.016-.025,0,0,.015-.024,0,0,.006-.009,0,0,.007-.011,0,0,.005-.008,0,0,.007-.01,0-.005,0-.006,0-.006,0-.005.007-.011,0,0,0-.007,0,0,.008-.011,0,0,0-.007,0,0,.016-.024,0,0L4.806,13h0l.006-.008h0l.017-.026v0l.017-.025,0,0,.005-.008,0,0,.009-.014,0,0,0-.007,0,0,.007-.01,0-.006,0-.005,0-.007,0,0,.007-.011v0l.007-.01v0ZM5.9,11.471l3.185,2.42c-.173.228-.345.462-.51.7L5.3,12.277q.289-.408.591-.806Zm.938-1.17,3.056,2.581c-.185.219-.368.444-.545.669L6.2,11.075l0,0,0,0,0-.006.007-.009,0,0,.005-.007,0,0,.008-.01,0,0,.007-.009,0,0,.018-.023v0l.009-.011h0l.01-.012h0l.186-.231h0l.019-.024h0l.019-.024h0l.009-.011h0l.009-.011h0l.008-.01,0,0,.009-.011,0,0,.007-.009,0,0,.006-.008,0-.005.006-.007,0-.005,0,0,.01-.012,0,0,.005-.007,0,0,.019-.023h0l.2-.244Zm1-1.121,2.919,2.734c-.2.209-.391.424-.579.64L7.159,9.921q.142-.163.287-.323h0l.007-.008h0l.012-.013,0,0,.005-.006,0,0,0,0,.008-.009,0,0L7.5,9.538l0,0,.009-.01h0l.009-.01v0l.02-.022h0l.19-.207h0l.01-.01h0l.01-.011h0l.009-.009,0,0,.009-.009,0,0,.006-.007,0-.005,0,0,.02-.021h0L7.83,9.18ZM8.883,8.112l2.775,2.881c-.206.2-.412.4-.611.609L8.175,8.818l.005-.005h0c.083-.086.166-.17.251-.255h0l.022-.022h0l.007-.007h0l.012-.012,0,0L8.485,8.5l0,0L8.5,8.491,8.5,8.486l.005-.005,0,0,0,0,.008-.008,0,0,.005-.005,0,0,.009-.009,0,0,.008-.008,0,0,.009-.009h0l.01-.01,0,0L8.592,8.4h0L8.6,8.385h0l.01-.01h0Q8.748,8.242,8.883,8.112ZM9.99,7.1l2.623,3.02c-.216.188-.432.382-.642.577L9.246,7.768q.189-.175.38-.348h0l.022-.02,0,0,.01-.009h0l.01-.009,0,0,.008-.007,0,0,.01-.009,0,0,.007-.006,0,0,.008-.007,0,0,.007-.006,0,0,.007-.006,0,0,.008-.007,0,0L9.764,7.3l0,0,.009-.008,0,0,.006-.006,0,0L9.8,7.265l0,0,.007-.006,0,0,.01-.009h0l.01-.009,0,0,.01-.009h0l.011-.01h0Zm1.157-.954L13.612,9.3c-.225.176-.451.359-.67.543L10.37,6.775l.156-.13h0l.012-.01h0l.011-.009h0l.011-.009,0,0,.009-.007,0,0,.007-.006.006-.005.006-.005.006,0,0,0,.022-.018h0c.149-.122.3-.241.448-.36l0,0,.011-.008.005,0,.005,0,.006,0,0,0,.011-.008h0l.011-.008h0Zm1.2-.893,2.3,3.273c-.234.164-.469.335-.7.508L11.544,5.84q.149-.113.3-.224h0l.012-.009h0l.012-.009h0l.011-.008h0l.012-.009h0l.011-.008,0,0,.01-.007h0l.011-.008,0,0,.008-.005,0,0,.01-.007,0,0,.006,0,.006,0,.006,0,.009-.007,0,0L12,5.5l0,0,.012-.009,0,0,.007-.005,0,0,.024-.018h0l.3-.212Zm1.249-.83,2.127,3.388c-.242.152-.485.311-.722.471L12.763,4.968l.3-.2h0l.026-.017h0l.025-.016,0,0,.008-.005h0l.014-.009,0,0,.007,0,0,0,.024-.016,0,0,.024-.016,0,0,.007,0,0,0,.015-.009h0l.008-.005h0l.026-.017h0L13.3,4.61h0l.3-.188Zm1.29-.764L16.84,7.15c-.25.139-.5.285-.745.433L14.027,4.159l.207-.124h0l.027-.016h0L14.3,4h0l.026-.015h0l.027-.016h0l.037-.022h0l.027-.016h0l.027-.016h0l.037-.022h0l.028-.016h0q.186-.107.374-.212Zm1.328-.7L17.985,6.55c-.257.126-.514.259-.767.394L15.33,3.417l.214-.113h0l.028-.015h0l.009,0h0l.018-.01h0l.009,0h0l.026-.013,0,0,.008,0h0l.017-.009h0l.008,0,0,0,.016-.008h0l.008,0,0,0,.008,0h0l.016-.008,0,0,.007,0,0,0,.014-.007,0,0,.007,0,0,0,.011-.005.006,0,.006,0,.006,0,.006,0,.007,0,.009,0,.006,0,.006,0,.007,0,.009,0,.007,0,.006,0,.007,0,.005,0,.011-.006,0,0,.008,0,0,0,.012-.006,0,0,.009,0,0,0,.025-.013h0l.012-.006h0L16,3.072h0l.013-.007h0Zm1.363-.627L19.159,6.01c-.263.113-.527.231-.786.353l-1.7-3.62.028-.013h0l.011-.005h0l.012-.006,0,0,.007,0,.012-.006.013-.006h0l.009,0h0l.3-.137h0l.03-.013h0l.009,0h0l.027-.012,0,0,.008,0h0l.016-.007.012-.005.006,0,.01,0,.007,0,.006,0,.007,0,.005,0,.011,0,.006,0,.007,0,.006,0,.01,0,0,0,.009,0,.005,0,.008,0,0,0,.012-.005,0,0,.009,0,0,0,.012-.005,0,0,.008,0,.005,0,.008,0,.006,0,.009,0,.005,0,.007,0,.006,0,.011,0,.007,0,0,0,.007,0,0,0,.015-.007h0l.009,0h0l.123-.053Zm1.393-.555,1.383,3.753c-.268.1-.538.2-.8.312l-1.512-3.7c.309-.126.618-.246.932-.362ZM20.4,1.3l1.185,3.82c-.273.085-.548.175-.818.269L19.446,1.61h0l.012,0,.013,0,.006,0,.011,0,.012,0,.011,0,.017-.006h0l.009,0h0q.424-.146.854-.28ZM21.84.891l.985,3.877c-.277.07-.556.147-.831.226l-1.119-3.84q.2-.058.4-.114l.01,0h0l.028-.008.013,0,.015,0,.015,0,.013,0,.014,0h0l.013,0h0Q21.62.946,21.84.891ZM23.3.559l.781,3.923c-.28.056-.564.117-.842.183L22.325.772h0q.3-.07.593-.133h0l.029-.006.014,0,.017,0,.013,0,.014,0,.017,0,.013,0,.009,0,.021,0h0L23.3.559ZM24.781.3l.577,3.958c-.283.041-.569.088-.851.139L23.794.466q.491-.089.987-.161ZM26.27.127l.372,3.983c-.285.027-.574.059-.857.095L25.276.237c.214-.027.428-.052.644-.075h.012l.023,0h.022l.017,0h.028l.029,0h0Zm1.5-.1.167,4c-.287.012-.576.029-.862.051l-.3-3.988q.253-.019.507-.034h.011l.032,0h.373l.036,0ZM29,0V4c-.211,0-.424,0-.634.008l-.1-4L28.575,0H29Z" transform="translate(1 1)" fill="#d5d5d5"/><g transform="translate(-10 -10)"><path d="M2,3a1,1,0,0,1-.707-.293l-2-2a1,1,0,0,1,0-1.414,1,1,0,0,1,1.414,0l2,2A1,1,0,0,1,2,3Z" transform="translate(24.5 24.5)" fill="#9d9d9d"/><path d="M0,3a1,1,0,0,1-.707-.293,1,1,0,0,1,0-1.414l2-2a1,1,0,0,1,1.414,0,1,1,0,0,1,0,1.414l-2,2A1,1,0,0,1,0,3Z" transform="translate(24.5 53.5)" fill="#9d9d9d"/><path d="M0,3a1,1,0,0,1-.707-.293,1,1,0,0,1,0-1.414l2-2a1,1,0,0,1,1.414,0,1,1,0,0,1,0,1.414l-2,2A1,1,0,0,1,0,3Z" transform="translate(53.5 24.5)" fill="#9d9d9d"/><path d="M2,3a1,1,0,0,1-.707-.293l-2-2a1,1,0,0,1,0-1.414,1,1,0,0,1,1.414,0l2,2A1,1,0,0,1,2,3Z" transform="translate(53.5 53.5)" fill="#9d9d9d"/></g><g transform="translate(-10 -10)"><text transform="translate(17 42)" fill="#9d9d9d" font-size="7" font-family="Ebrima-Bold, Ebrima" font-weight="700"><tspan x="0" y="0">W</tspan></text><text transform="translate(38 63)" fill="#9d9d9d" font-size="7" font-family="Ebrima-Bold, Ebrima" font-weight="700"><tspan x="0" y="0">S</tspan></text><text transform="translate(57 42)" fill="#9d9d9d" font-size="7" font-family="Ebrima-Bold, Ebrima" font-weight="700"><tspan x="0" y="0">E</tspan></text><text transform="translate(37 22)" fill="#9d9d9d" font-size="7" font-family="Ebrima-Bold, Ebrima" font-weight="700"><tspan x="0" y="0">N</tspan></text></g><path d="M4,1H0V-1H4Z" transform="translate(1 30)" fill="#9d9d9d"/><path d="M1,4H-1V0H1Z" transform="translate(30 1)" fill="#9d9d9d"/><path d="M4,1H0V-1H4Z" transform="translate(55 30)" fill="#9d9d9d"/><path d="M1,4H-1V0H1Z" transform="translate(30 55)" fill="#9d9d9d"/></g></svg>