<svg xmlns="http://www.w3.org/2000/svg" xmlns:xlink="http://www.w3.org/1999/xlink" width="24" height="24" viewBox="0 0 24 24"><defs><clipPath id="b"><rect width="24" height="24"/></clipPath></defs><g id="a" clip-path="url(#b)"><g transform="translate(0.575 2.685)"><line y2="2" transform="translate(7.124 16.249)" fill="none" stroke="#81c6e8" stroke-linecap="round" stroke-linejoin="round" stroke-width="2"/><line y2="2" transform="translate(7.124 11.35)" fill="none" stroke="#81c6e8" stroke-linecap="round" stroke-linejoin="round" stroke-width="2"/><line y2="2" transform="translate(14.124 16.249)" fill="none" stroke="#81c6e8" stroke-linecap="round" stroke-linejoin="round" stroke-width="2"/><line y2="2" transform="translate(14.124 11.35)" fill="none" stroke="#81c6e8" stroke-linecap="round" stroke-linejoin="round" stroke-width="2"/><line y2="2" transform="translate(10.624 18.249)" fill="none" stroke="#81c6e8" stroke-linecap="round" stroke-linejoin="round" stroke-width="2"/><line y2="2" transform="translate(10.624 13.074)" fill="none" stroke="#81c6e8" stroke-linecap="round" stroke-linejoin="round" stroke-width="2"/><path d="M16.644,13.829A4.117,4.117,0,0,0,15,5.941H13.96A6.587,6.587,0,1,0,3.469,12.734" fill="none" stroke="#81c6e8" stroke-linecap="round" stroke-linejoin="round" stroke-width="2"/></g><path d="M137.876,137.675a3.786,3.786,0,1,1-3.939-6.236.474.474,0,0,1,.6.6,2.822,2.822,0,0,0,3.613,3.613.473.473,0,0,1,.6.6A3.738,3.738,0,0,1,137.876,137.675Zm-4.684-4.685a2.839,2.839,0,1,0,4.23,3.774,3.768,3.768,0,0,1-3.988-3.988A2.665,2.665,0,0,0,133.192,132.99Z" transform="translate(-115.415 -131.413)" fill="#9d9d9d"/></g></svg>