<svg xmlns="http://www.w3.org/2000/svg" xmlns:xlink="http://www.w3.org/1999/xlink" width="24" height="24" viewBox="0 0 24 24"><defs><clipPath id="b"><rect width="24" height="24"/></clipPath></defs><g id="a" clip-path="url(#b)"><g transform="translate(-2.166 -1.998)"><path d="M15.844,1022.36a.858.858,0,0,0-.844.871V1045.5a.858.858,0,0,0,1.715,0v-22.271a.858.858,0,0,0-.871-.871Z" transform="translate(-1.692 -1020.362)" fill="#9d9d9d" fill-rule="evenodd"/><path d="M11.693,1023.37a.858.858,0,0,0-.474,1.575l2.552,1.715a.858.858,0,0,0,.959,0l2.552-1.715a.858.858,0,1,0-.958-1.423l-2.074,1.392-2.074-1.394a.858.858,0,0,0-.484-.153Zm2.55,18.841a.859.859,0,0,0-.472.146l-2.553,1.717a.858.858,0,0,0,.958,1.424l2.074-1.4,2.074,1.4a.858.858,0,0,0,.958-1.424l-2.552-1.717A.859.859,0,0,0,14.244,1042.21Zm9.688-14.124a.857.857,0,0,0-.466.12L4.178,1039.343a.858.858,0,1,0,.858,1.484l19.288-11.135a.858.858,0,0,0-.392-1.606Z" transform="translate(-0.085 -1020.505)" fill="#9d9d9d" fill-rule="evenodd"/><path d="M21.748,1026.78a.857.857,0,0,0-.816.81l-.21,3.068a.857.857,0,0,0,.48.828l2.761,1.354a.858.858,0,0,0,.754-1.541l-2.244-1.1.171-2.494a.857.857,0,0,0-.9-.928ZM3.954,1037.062a.858.858,0,0,0-.34,1.633l2.244,1.1-.171,2.494a.858.858,0,0,0,1.712.117l.21-3.068a.858.858,0,0,0-.48-.829l-2.761-1.353a.859.859,0,0,0-.413-.092Zm.5-8.5a.858.858,0,0,0-.365,1.605L23.381,1041.3a.858.858,0,1,0,.858-1.486L4.95,1028.68a.858.858,0,0,0-.492-.119Z" transform="translate(0 -1020.991)" fill="#9d9d9d" fill-rule="evenodd"/><path d="M24.355,1037.062a.857.857,0,0,0-.389.092l-2.761,1.353a.858.858,0,0,0-.48.829l.21,3.068a.858.858,0,0,0,1.712-.117l-.172-2.494,2.245-1.1a.858.858,0,0,0-.365-1.634Zm-17.8-10.282a.858.858,0,0,0-.87.927l.172,2.494-2.245,1.1a.858.858,0,1,0,.755,1.541l2.761-1.353a.858.858,0,0,0,.479-.829l-.21-3.068a.858.858,0,0,0-.842-.811Zm5.051.5a.858.858,0,0,0-.473,1.576l2.552,1.715a.858.858,0,0,0,.959,0l2.552-1.715a.858.858,0,0,0-.958-1.424l-2.074,1.39-2.074-1.394a.857.857,0,0,0-.484-.153Zm2.551,12a.857.857,0,0,0-.472.146l-2.553,1.717a.858.858,0,0,0,.958,1.424l2.074-1.4,2.074,1.4a.858.858,0,0,0,.958-1.424l-2.552-1.718a.858.858,0,0,0-.486-.146Z" transform="translate(-0.002 -1020.991)" fill="#9d9d9d" fill-rule="evenodd"/><path d="M21.88,1035.631a.855.855,0,0,0-.389.092l-2.762,1.353a.857.857,0,0,0-.478.829l.208,3.068a.858.858,0,1,0,1.712-.118l-.17-2.494,2.245-1.1a.858.858,0,0,0-.367-1.633Zm-11.867-6.861a.858.858,0,0,0-.87.928l.17,2.494-2.245,1.1a.858.858,0,1,0,.756,1.541l2.762-1.353a.857.857,0,0,0,.478-.828l-.208-3.068A.858.858,0,0,0,10.013,1028.77Zm-2.6,6.861a.858.858,0,0,0-.342,1.633l2.245,1.1-.17,2.494a.858.858,0,1,0,1.712.118l.21-3.068a.858.858,0,0,0-.479-.829l-2.761-1.353a.857.857,0,0,0-.414-.092Zm11.867-6.86a.858.858,0,0,0-.817.811l-.21,3.068a.857.857,0,0,0,.479.828l2.761,1.353a.858.858,0,0,0,.756-1.541l-2.245-1.1.17-2.495a.858.858,0,0,0-.894-.926Z" transform="translate(-0.492 -1021.275)" fill="#9d9d9d" fill-rule="evenodd"/></g></g></svg>