<svg xmlns="http://www.w3.org/2000/svg" xmlns:xlink="http://www.w3.org/1999/xlink" width="24" height="24" viewBox="0 0 24 24"><defs><clipPath id="b"><rect width="24" height="24"/></clipPath></defs><g id="a" clip-path="url(#b)"><g transform="translate(-75.002 -51.125)"><path d="M207.484,52.5a.817.817,0,0,0,0,1.635,2.452,2.452,0,0,1,0,4.9H193.317a.817.817,0,0,0,0,1.635h14.167a4.087,4.087,0,1,0,0-8.173Z" transform="translate(-112.854)" fill="#9d9d9d" stroke="#9d9d9d" stroke-width="0.5"/><path d="M207.484,332.5H193.317a.817.817,0,0,0,0,1.635h14.167a2.452,2.452,0,1,1,0,4.9.817.817,0,0,0,0,1.635,4.087,4.087,0,0,0,0-8.173Z" transform="translate(-112.854 -266.923)" fill="#9d9d9d" stroke="#9d9d9d" stroke-width="0.5"/><path d="M99.987,264.135h17.436a.817.817,0,1,0,0-1.635H99.987a.817.817,0,1,0,0,1.635Z" transform="translate(-23.882 -200.192)" fill="#9d9d9d" stroke="#9d9d9d" stroke-width="0.5"/></g></g></svg>